<?xml version="1.0" encoding="UTF-8"?>
<svg width="19px" height="19px" viewBox="0 0 19 19" version="1.1" xmlns="http://www.w3.org/2000/svg" xmlns:xlink="http://www.w3.org/1999/xlink">
    <!-- Generator: Sketch 51.2 (57519) - http://www.bohemiancoding.com/sketch -->
    <title></title>
    <desc>Created with Sketch.</desc>
    <defs></defs>
    <g id="Page-1" stroke="none" stroke-width="1" fill="none" fill-rule="evenodd">
        <path d="M17.7812094,8.79689456 C17.9114172,8.79689456 18.0220944,8.84246756 18.1132399,8.93361298 C18.2043853,9.0247584 18.2499583,9.13543562 18.2499583,9.26564344 L18.2499583,9.73439232 C18.2499583,9.86460015 18.2043853,9.97527736 18.1132399,10.0664228 C18.0220944,10.1575682 17.9114172,10.2031412 17.7812094,10.2031412 L10.2031025,10.2031412 L10.2031025,17.7812481 C10.2031025,17.911456 10.1575295,18.0221332 10.066384,18.1132786 C9.97523862,18.204424 9.8645614,18.249997 9.73435358,18.249997 L9.2656047,18.249997 C9.13539687,18.249997 9.02471966,18.204424 8.93357424,18.1132786 C8.84242882,18.0221332 8.79685581,17.911456 8.79685581,17.7812481 L8.79685581,10.2031412 L1.21874888,10.2031412 C1.08854106,10.2031412 0.977863841,10.1575682 0.886718424,10.0664228 C0.795573007,9.97527736 0.75,9.86460015 0.75,9.73439232 L0.75,9.26564344 C0.75,9.13543562 0.795573007,9.0247584 0.886718424,8.93361298 C0.977863841,8.84246756 1.08854106,8.79689456 1.21874888,8.79689456 L8.79685581,8.79689456 L8.79685581,1.21878763 C8.79685581,1.0885798 8.84242882,0.977902584 8.93357424,0.886757167 C9.02471966,0.79561175 9.13539687,0.750038743 9.2656047,0.750038743 L9.73435358,0.750038743 C9.8645614,0.750038743 9.97523862,0.79561175 10.066384,0.886757167 C10.1575295,0.977902584 10.2031025,1.0885798 10.2031025,1.21878763 L10.2031025,8.79689456 L17.7812094,8.79689456 Z" id="" fill="#EF0D33"></path>
    </g>
</svg>